<svg width="158" height="53" viewBox="0 0 158 53" fill="none" xmlns="http://www.w3.org/2000/svg">
<path d="M6.33462 52.2C4.45129 52.2 2.95962 51.775 1.85962 50.925C0.776286 50.075 0.234619 48.9417 0.234619 47.525V46.75C0.234619 46.5833 0.317952 46.5 0.484619 46.5H1.70962C1.87629 46.5 1.95962 46.5833 1.95962 46.75V47.425C1.95962 48.3917 2.35962 49.175 3.15962 49.775C3.95962 50.3583 5.06795 50.65 6.48462 50.65C7.76795 50.65 8.74295 50.3833 9.40962 49.85C10.0763 49.3 10.4096 48.575 10.4096 47.675C10.4096 47.0917 10.2513 46.5917 9.93462 46.175C9.63462 45.7583 9.15962 45.3667 8.50962 45C7.87629 44.6333 6.97629 44.2083 5.80962 43.725C4.55962 43.225 3.58462 42.7917 2.88462 42.425C2.20129 42.0417 1.64295 41.5583 1.20962 40.975C0.792953 40.375 0.584619 39.625 0.584619 38.725C0.584619 37.325 1.06795 36.2417 2.03462 35.475C3.01795 34.6917 4.35962 34.3 6.05962 34.3C7.90962 34.3 9.36795 34.7333 10.4346 35.6C11.5013 36.4667 12.0346 37.6167 12.0346 39.05V39.6C12.0346 39.7667 11.9513 39.85 11.7846 39.85H10.5346C10.368 39.85 10.2846 39.7667 10.2846 39.6V39.15C10.2846 38.1833 9.90129 37.3917 9.13462 36.775C8.38462 36.1583 7.33462 35.85 5.98462 35.85C4.80129 35.85 3.89295 36.0917 3.25962 36.575C2.62629 37.0583 2.30962 37.7583 2.30962 38.675C2.30962 39.275 2.45962 39.775 2.75962 40.175C3.07629 40.5583 3.51795 40.9 4.08462 41.2C4.66795 41.4833 5.55962 41.8583 6.75962 42.325C7.97629 42.825 8.95129 43.2917 9.68462 43.725C10.4346 44.1583 11.0346 44.6917 11.4846 45.325C11.9513 45.9417 12.1846 46.7 12.1846 47.6C12.1846 49 11.668 50.1167 10.6346 50.95C9.60129 51.7833 8.16795 52.2 6.33462 52.2Z" fill="#2A3D45"/>
<path d="M27.2092 35.8C27.2092 35.9667 27.1259 36.05 26.9592 36.05H17.7592C17.6926 36.05 17.6592 36.0833 17.6592 36.15V42.325C17.6592 42.3917 17.6926 42.425 17.7592 42.425H24.2092C24.3759 42.425 24.4592 42.5083 24.4592 42.675V43.725C24.4592 43.8917 24.3759 43.975 24.2092 43.975H17.7592C17.6926 43.975 17.6592 44.0083 17.6592 44.075V50.35C17.6592 50.4167 17.6926 50.45 17.7592 50.45H26.9592C27.1259 50.45 27.2092 50.5333 27.2092 50.7V51.75C27.2092 51.9167 27.1259 52 26.9592 52H16.1342C15.9676 52 15.8842 51.9167 15.8842 51.75V34.75C15.8842 34.5833 15.9676 34.5 16.1342 34.5H26.9592C27.1259 34.5 27.2092 34.5833 27.2092 34.75V35.8Z" fill="#2A3D45"/>
<path d="M41.2209 52C41.0709 52 40.9709 51.9417 40.9209 51.825L37.2459 44.075C37.2293 44.025 37.1959 44 37.1459 44H32.8959C32.8293 44 32.7959 44.0333 32.7959 44.1V51.75C32.7959 51.9167 32.7126 52 32.5459 52H31.2709C31.1043 52 31.0209 51.9167 31.0209 51.75V34.75C31.0209 34.5833 31.1043 34.5 31.2709 34.5H37.7459C39.1793 34.5 40.3376 34.95 41.2209 35.85C42.1043 36.7333 42.5459 37.8917 42.5459 39.325C42.5459 40.4917 42.2293 41.4833 41.5959 42.3C40.9626 43.1167 40.1043 43.6417 39.0209 43.875C38.9543 43.9083 38.9376 43.95 38.9709 44L42.7209 51.7C42.7376 51.7333 42.7459 51.775 42.7459 51.825C42.7459 51.9417 42.6793 52 42.5459 52H41.2209ZM32.8959 36.05C32.8293 36.05 32.7959 36.0833 32.7959 36.15V42.475C32.7959 42.5417 32.8293 42.575 32.8959 42.575H37.5459C38.5126 42.575 39.2959 42.275 39.8959 41.675C40.4959 41.075 40.7959 40.2917 40.7959 39.325C40.7959 38.3583 40.4959 37.575 39.8959 36.975C39.2959 36.3583 38.5126 36.05 37.5459 36.05H32.8959Z" fill="#2A3D45"/>
<path d="M56.5286 52C56.3786 52 56.2786 51.9417 56.2286 51.825L52.5536 44.075C52.5369 44.025 52.5036 44 52.4536 44H48.2036C48.1369 44 48.1036 44.0333 48.1036 44.1V51.75C48.1036 51.9167 48.0202 52 47.8536 52H46.5786C46.4119 52 46.3286 51.9167 46.3286 51.75V34.75C46.3286 34.5833 46.4119 34.5 46.5786 34.5H53.0536C54.4869 34.5 55.6452 34.95 56.5286 35.85C57.4119 36.7333 57.8536 37.8917 57.8536 39.325C57.8536 40.4917 57.5369 41.4833 56.9036 42.3C56.2702 43.1167 55.4119 43.6417 54.3286 43.875C54.2619 43.9083 54.2452 43.95 54.2786 44L58.0286 51.7C58.0452 51.7333 58.0536 51.775 58.0536 51.825C58.0536 51.9417 57.9869 52 57.8536 52H56.5286ZM48.2036 36.05C48.1369 36.05 48.1036 36.0833 48.1036 36.15V42.475C48.1036 42.5417 48.1369 42.575 48.2036 42.575H52.8536C53.8202 42.575 54.6036 42.275 55.2036 41.675C55.8036 41.075 56.1036 40.2917 56.1036 39.325C56.1036 38.3583 55.8036 37.575 55.2036 36.975C54.6036 36.3583 53.8202 36.05 52.8536 36.05H48.2036Z" fill="#2A3D45"/>
<path d="M72.9389 52C72.7889 52 72.6889 51.9333 72.6389 51.8L71.6389 48.65C71.6222 48.6 71.5889 48.575 71.5389 48.575H64.0639C64.0139 48.575 63.9806 48.6 63.9639 48.65L62.9639 51.8C62.9139 51.9333 62.8139 52 62.6639 52H61.3139C61.1306 52 61.0639 51.9083 61.1139 51.725L66.6389 34.7C66.6889 34.5667 66.7889 34.5 66.9389 34.5H68.6389C68.7889 34.5 68.8889 34.5667 68.9389 34.7L74.4889 51.725L74.5139 51.825C74.5139 51.9417 74.4389 52 74.2889 52H72.9389ZM64.4639 47C64.4472 47.0333 64.4472 47.0667 64.4639 47.1C64.4972 47.1167 64.5306 47.125 64.5639 47.125H71.0139C71.0472 47.125 71.0723 47.1167 71.0889 47.1C71.1223 47.0667 71.1306 47.0333 71.1139 47L67.8639 36.8C67.8472 36.7667 67.8223 36.75 67.7889 36.75C67.7556 36.75 67.7306 36.7667 67.7139 36.8L64.4639 47Z" fill="#2A3D45"/>
<path d="M77.9995 52C77.8328 52 77.7495 51.9167 77.7495 51.75V34.75C77.7495 34.5833 77.8328 34.5 77.9995 34.5H79.2745C79.4411 34.5 79.5245 34.5833 79.5245 34.75V50.35C79.5245 50.4167 79.5578 50.45 79.6245 50.45H88.4495C88.6161 50.45 88.6995 50.5333 88.6995 50.7V51.75C88.6995 51.9167 88.6161 52 88.4495 52H77.9995Z" fill="#2A3D45"/>
<path d="M101.908 34.75C101.908 34.5833 101.992 34.5 102.158 34.5H103.433C103.6 34.5 103.683 34.5833 103.683 34.75V51.75C103.683 51.9167 103.6 52 103.433 52H102.158C101.992 52 101.908 51.9167 101.908 51.75V44.075C101.908 44.0083 101.875 43.975 101.808 43.975H93.8335C93.7668 43.975 93.7334 44.0083 93.7334 44.075V51.75C93.7334 51.9167 93.6501 52 93.4834 52H92.2085C92.0418 52 91.9585 51.9167 91.9585 51.75V34.75C91.9585 34.5833 92.0418 34.5 92.2085 34.5H93.4834C93.6501 34.5 93.7334 34.5833 93.7334 34.75V42.325C93.7334 42.3917 93.7668 42.425 93.8335 42.425H101.808C101.875 42.425 101.908 42.3917 101.908 42.325V34.75Z" fill="#2A3D45"/>
<path d="M119.641 35.8C119.641 35.9667 119.558 36.05 119.391 36.05H110.191C110.124 36.05 110.091 36.0833 110.091 36.15V42.325C110.091 42.3917 110.124 42.425 110.191 42.425H116.641C116.808 42.425 116.891 42.5083 116.891 42.675V43.725C116.891 43.8917 116.808 43.975 116.641 43.975H110.191C110.124 43.975 110.091 44.0083 110.091 44.075V50.35C110.091 50.4167 110.124 50.45 110.191 50.45H119.391C119.558 50.45 119.641 50.5333 119.641 50.7V51.75C119.641 51.9167 119.558 52 119.391 52H108.566C108.399 52 108.316 51.9167 108.316 51.75V34.75C108.316 34.5833 108.399 34.5 108.566 34.5H119.391C119.558 34.5 119.641 34.5833 119.641 34.75V35.8Z" fill="#2A3D45"/>
<path d="M133.653 52C133.503 52 133.403 51.9417 133.353 51.825L129.678 44.075C129.661 44.025 129.628 44 129.578 44H125.328C125.261 44 125.228 44.0333 125.228 44.1V51.75C125.228 51.9167 125.144 52 124.978 52H123.703C123.536 52 123.453 51.9167 123.453 51.75V34.75C123.453 34.5833 123.536 34.5 123.703 34.5H130.178C131.611 34.5 132.769 34.95 133.653 35.85C134.536 36.7333 134.978 37.8917 134.978 39.325C134.978 40.4917 134.661 41.4833 134.028 42.3C133.394 43.1167 132.536 43.6417 131.453 43.875C131.386 43.9083 131.369 43.95 131.403 44L135.153 51.7C135.169 51.7333 135.178 51.775 135.178 51.825C135.178 51.9417 135.111 52 134.978 52H133.653ZM125.328 36.05C125.261 36.05 125.228 36.0833 125.228 36.15V42.475C125.228 42.5417 125.261 42.575 125.328 42.575H129.978C130.944 42.575 131.728 42.275 132.328 41.675C132.928 41.075 133.228 40.2917 133.228 39.325C133.228 38.3583 132.928 37.575 132.328 36.975C131.728 36.3583 130.944 36.05 129.978 36.05H125.328Z" fill="#2A3D45"/>
<path d="M139.01 52C138.844 52 138.76 51.9167 138.76 51.75V34.75C138.76 34.5833 138.844 34.5 139.01 34.5H140.285C140.452 34.5 140.535 34.5833 140.535 34.75V51.75C140.535 51.9167 140.452 52 140.285 52H139.01Z" fill="#2A3D45"/>
<path d="M155.605 52C155.455 52 155.355 51.9333 155.305 51.8L154.305 48.65C154.288 48.6 154.255 48.575 154.205 48.575H146.73C146.68 48.575 146.647 48.6 146.63 48.65L145.63 51.8C145.58 51.9333 145.48 52 145.33 52H143.98C143.797 52 143.73 51.9083 143.78 51.725L149.305 34.7C149.355 34.5667 149.455 34.5 149.605 34.5H151.305C151.455 34.5 151.555 34.5667 151.605 34.7L157.155 51.725L157.18 51.825C157.18 51.9417 157.105 52 156.955 52H155.605ZM147.13 47C147.113 47.0333 147.113 47.0667 147.13 47.1C147.163 47.1167 147.197 47.125 147.23 47.125H153.68C153.713 47.125 153.738 47.1167 153.755 47.1C153.788 47.0667 153.797 47.0333 153.78 47L150.53 36.8C150.513 36.7667 150.488 36.75 150.455 36.75C150.422 36.75 150.397 36.7667 150.38 36.8L147.13 47Z" fill="#2A3D45"/>
<path d="M20.4452 1.36001C20.4452 1.26001 20.4752 1.18001 20.5352 1.12001C20.6152 1.04001 20.7052 1.00001 20.8052 1.00001H24.3152C24.4152 1.00001 24.4952 1.04001 24.5552 1.12001C24.6352 1.18001 24.6752 1.26001 24.6752 1.36001V21.64C24.6752 21.74 24.6352 21.83 24.5552 21.91C24.4952 21.97 24.4152 22 24.3152 22H20.8052C20.7052 22 20.6152 21.97 20.5352 21.91C20.4752 21.83 20.4452 21.74 20.4452 21.64V13.36C20.4452 13.26 20.3952 13.21 20.2952 13.21H13.6652C13.5652 13.21 13.5152 13.26 13.5152 13.36V21.64C13.5152 21.74 13.4752 21.83 13.3952 21.91C13.3352 21.97 13.2552 22 13.1552 22H9.64516C9.54516 22 9.45516 21.97 9.37516 21.91C9.31516 21.83 9.28516 21.74 9.28516 21.64V1.36001C9.28516 1.26001 9.31516 1.18001 9.37516 1.12001C9.45516 1.04001 9.54516 1.00001 9.64516 1.00001H13.1552C13.2552 1.00001 13.3352 1.04001 13.3952 1.12001C13.4752 1.18001 13.5152 1.26001 13.5152 1.36001V9.43001C13.5152 9.53001 13.5652 9.58001 13.6652 9.58001H20.2952C20.3952 9.58001 20.4452 9.53001 20.4452 9.43001V1.36001Z" fill="#289FEB"/>
<path d="M28.483 22C28.383 22 28.293 21.97 28.213 21.91C28.153 21.83 28.123 21.74 28.123 21.64V1.36001C28.123 1.26001 28.153 1.18001 28.213 1.12001C28.293 1.04001 28.383 1.00001 28.483 1.00001H31.993C32.093 1.00001 32.173 1.04001 32.233 1.12001C32.313 1.18001 32.353 1.26001 32.353 1.36001V21.64C32.353 21.74 32.313 21.83 32.233 21.91C32.173 21.97 32.093 22 31.993 22H28.483Z" fill="#289FEB"/>
<path d="M43.3839 22.24C41.8439 22.24 40.4839 21.93 39.3039 21.31C38.1239 20.69 37.2039 19.83 36.5439 18.73C35.9039 17.61 35.5839 16.32 35.5839 14.86V8.14001C35.5839 6.68001 35.9039 5.39001 36.5439 4.27001C37.2039 3.15001 38.1239 2.29001 39.3039 1.69001C40.4839 1.07001 41.8439 0.76001 43.3839 0.76001C44.9039 0.76001 46.2439 1.06001 47.4039 1.66001C48.5839 2.26001 49.4939 3.08001 50.1339 4.12001C50.7939 5.14001 51.1239 6.28001 51.1239 7.54001V7.75001C51.1239 7.85001 51.0839 7.94001 51.0039 8.02001C50.9439 8.08001 50.8639 8.11001 50.7639 8.11001H47.2539C47.1539 8.11001 47.0639 8.08001 46.9839 8.02001C46.9239 7.94001 46.8939 7.85001 46.8939 7.75001V7.66001C46.8939 6.74001 46.5739 5.97001 45.9339 5.35001C45.2939 4.71001 44.4439 4.39001 43.3839 4.39001C42.3039 4.39001 41.4339 4.73001 40.7739 5.41001C40.1339 6.07001 39.8139 6.94001 39.8139 8.02001V14.98C39.8139 16.06 40.1639 16.94 40.8639 17.62C41.5639 18.28 42.4539 18.61 43.5339 18.61C44.5739 18.61 45.4039 18.34 46.0239 17.8C46.6439 17.24 46.9539 16.47 46.9539 15.49V14.14C46.9539 14.04 46.9039 13.99 46.8039 13.99H43.4439C43.3439 13.99 43.2539 13.96 43.1739 13.9C43.1139 13.82 43.0839 13.73 43.0839 13.63V10.87C43.0839 10.77 43.1139 10.69 43.1739 10.63C43.2539 10.55 43.3439 10.51 43.4439 10.51H50.7639C50.8639 10.51 50.9439 10.55 51.0039 10.63C51.0839 10.69 51.1239 10.77 51.1239 10.87V14.83C51.1239 16.35 50.8039 17.67 50.1639 18.79C49.5239 19.91 48.6139 20.77 47.4339 21.37C46.2739 21.95 44.9239 22.24 43.3839 22.24Z" fill="#289FEB"/>
<path d="M65.533 1.36001C65.533 1.26001 65.563 1.18001 65.623 1.12001C65.703 1.04001 65.793 1.00001 65.893 1.00001H69.403C69.503 1.00001 69.583 1.04001 69.643 1.12001C69.723 1.18001 69.763 1.26001 69.763 1.36001V21.64C69.763 21.74 69.723 21.83 69.643 21.91C69.583 21.97 69.503 22 69.403 22H65.893C65.793 22 65.703 21.97 65.623 21.91C65.563 21.83 65.533 21.74 65.533 21.64V13.36C65.533 13.26 65.483 13.21 65.383 13.21H58.753C58.653 13.21 58.603 13.26 58.603 13.36V21.64C58.603 21.74 58.563 21.83 58.483 21.91C58.423 21.97 58.343 22 58.243 22H54.733C54.633 22 54.543 21.97 54.463 21.91C54.403 21.83 54.373 21.74 54.373 21.64V1.36001C54.373 1.26001 54.403 1.18001 54.463 1.12001C54.543 1.04001 54.633 1.00001 54.733 1.00001H58.243C58.343 1.00001 58.423 1.04001 58.483 1.12001C58.563 1.18001 58.603 1.26001 58.603 1.36001V9.43001C58.603 9.53001 58.653 9.58001 58.753 9.58001H65.383C65.483 9.58001 65.533 9.53001 65.533 9.43001V1.36001Z" fill="#289FEB"/>
<path d="M93.7068 1.00001C93.8068 1.00001 93.8868 1.04001 93.9468 1.12001C94.0268 1.18001 94.0668 1.26001 94.0668 1.36001V4.30001C94.0668 4.40001 94.0268 4.49001 93.9468 4.57001C93.8868 4.63001 93.8068 4.66001 93.7068 4.66001H88.3368C88.2368 4.66001 88.1868 4.71001 88.1868 4.81001V21.64C88.1868 21.74 88.1468 21.83 88.0668 21.91C88.0068 21.97 87.9268 22 87.8268 22H84.3168C84.2168 22 84.1268 21.97 84.0468 21.91C83.9868 21.83 83.9568 21.74 83.9568 21.64V4.81001C83.9568 4.71001 83.9068 4.66001 83.8068 4.66001H78.5868C78.4868 4.66001 78.3968 4.63001 78.3168 4.57001C78.2568 4.49001 78.2268 4.40001 78.2268 4.30001V1.36001C78.2268 1.26001 78.2568 1.18001 78.3168 1.12001C78.3968 1.04001 78.4868 1.00001 78.5868 1.00001H93.7068Z" fill="#289FEB"/>
<path d="M111.346 4.27001C111.346 4.37001 111.306 4.46001 111.226 4.54001C111.166 4.60001 111.086 4.63001 110.986 4.63001H101.146C101.046 4.63001 100.996 4.68001 100.996 4.78001V9.43001C100.996 9.53001 101.046 9.58001 101.146 9.58001H107.596C107.696 9.58001 107.776 9.62001 107.836 9.70001C107.916 9.76001 107.956 9.84001 107.956 9.94001V12.85C107.956 12.95 107.916 13.04 107.836 13.12C107.776 13.18 107.696 13.21 107.596 13.21H101.146C101.046 13.21 100.996 13.26 100.996 13.36V18.22C100.996 18.32 101.046 18.37 101.146 18.37H110.986C111.086 18.37 111.166 18.41 111.226 18.49C111.306 18.55 111.346 18.63 111.346 18.73V21.64C111.346 21.74 111.306 21.83 111.226 21.91C111.166 21.97 111.086 22 110.986 22H97.1256C97.0256 22 96.9356 21.97 96.8556 21.91C96.7956 21.83 96.7656 21.74 96.7656 21.64V1.36001C96.7656 1.26001 96.7956 1.18001 96.8556 1.12001C96.9356 1.04001 97.0256 1.00001 97.1256 1.00001H110.986C111.086 1.00001 111.166 1.04001 111.226 1.12001C111.306 1.18001 111.346 1.26001 111.346 1.36001V4.27001Z" fill="#289FEB"/>
<path d="M121.665 22.24C120.105 22.24 118.735 21.94 117.555 21.34C116.375 20.72 115.465 19.86 114.825 18.76C114.185 17.66 113.865 16.39 113.865 14.95V8.02001C113.865 6.58001 114.185 5.31001 114.825 4.21001C115.465 3.11001 116.375 2.26001 117.555 1.66001C118.735 1.06001 120.105 0.76001 121.665 0.76001C123.205 0.76001 124.555 1.05001 125.715 1.63001C126.895 2.19001 127.805 3.00001 128.445 4.06001C129.105 5.10001 129.435 6.31001 129.435 7.69001C129.435 7.87001 129.315 7.98001 129.075 8.02001L125.565 8.23001H125.505C125.305 8.23001 125.205 8.12001 125.205 7.90001C125.205 6.84001 124.875 5.99001 124.215 5.35001C123.575 4.71001 122.725 4.39001 121.665 4.39001C120.585 4.39001 119.715 4.71001 119.055 5.35001C118.415 5.99001 118.095 6.84001 118.095 7.90001V15.13C118.095 16.17 118.415 17.01 119.055 17.65C119.715 18.29 120.585 18.61 121.665 18.61C122.725 18.61 123.575 18.29 124.215 17.65C124.875 17.01 125.205 16.17 125.205 15.13C125.205 14.91 125.325 14.8 125.565 14.8L129.075 14.95C129.175 14.95 129.255 14.98 129.315 15.04C129.395 15.1 129.435 15.17 129.435 15.25C129.435 16.63 129.105 17.85 128.445 18.91C127.805 19.97 126.895 20.79 125.715 21.37C124.555 21.95 123.205 22.24 121.665 22.24Z" fill="#289FEB"/>
<path d="M143.697 1.36001C143.697 1.26001 143.727 1.18001 143.787 1.12001C143.867 1.04001 143.957 1.00001 144.057 1.00001H147.567C147.667 1.00001 147.747 1.04001 147.807 1.12001C147.887 1.18001 147.927 1.26001 147.927 1.36001V21.64C147.927 21.74 147.887 21.83 147.807 21.91C147.747 21.97 147.667 22 147.567 22H144.057C143.957 22 143.867 21.97 143.787 21.91C143.727 21.83 143.697 21.74 143.697 21.64V13.36C143.697 13.26 143.647 13.21 143.547 13.21H136.917C136.817 13.21 136.767 13.26 136.767 13.36V21.64C136.767 21.74 136.727 21.83 136.647 21.91C136.587 21.97 136.507 22 136.407 22H132.897C132.797 22 132.707 21.97 132.627 21.91C132.567 21.83 132.537 21.74 132.537 21.64V1.36001C132.537 1.26001 132.567 1.18001 132.627 1.12001C132.707 1.04001 132.797 1.00001 132.897 1.00001H136.407C136.507 1.00001 136.587 1.04001 136.647 1.12001C136.727 1.18001 136.767 1.26001 136.767 1.36001V9.43001C136.767 9.53001 136.817 9.58001 136.917 9.58001H143.547C143.647 9.58001 143.697 9.53001 143.697 9.43001V1.36001Z" fill="#289FEB"/>
</svg>
