<svg width="1133" height="704" viewBox="0 0 1133 704" fill="none" xmlns="http://www.w3.org/2000/svg">
<path d="M0.661133 118.903H23.0705C30.2931 118.903 36.0345 124.644 36.0345 131.867V175.389H93.4465V118.903H115.856C122.893 118.903 128.821 124.644 128.821 131.867V267.062H93.4465V210.577H36.0345V267.062H0.661133V118.903Z" fill="#549CDA"/>
<path d="M156.6 118.903H179.008C186.046 118.903 191.972 124.644 191.972 131.867V267.062H156.6V118.903Z" fill="#549CDA"/>
<path d="M265.494 263.173C264.383 262.804 263.086 262.433 261.975 261.877C260.864 261.506 259.752 260.952 258.642 260.581L256.234 259.284L251.604 256.877C250.863 256.321 249.938 255.951 249.196 255.395C247.715 254.469 246.232 253.359 244.936 252.432C241.974 250.209 239.38 247.803 236.787 245.395C223.452 231.875 215.119 213.354 215.119 192.982C215.119 172.425 223.452 153.905 236.787 140.571C239.38 137.977 241.974 135.756 244.936 133.533C246.232 132.421 247.715 131.496 249.196 130.571C252.344 128.532 255.494 126.865 258.642 125.384C259.752 124.829 260.864 124.459 261.975 123.903L265.494 122.792C272.902 120.199 280.866 118.903 289.199 118.903C297.534 118.903 305.496 120.199 312.904 122.792L316.424 123.903C317.535 124.459 318.647 124.829 319.758 125.384C323.091 126.865 326.239 128.532 329.203 130.571C330.684 131.496 332.166 132.421 333.648 133.533C336.426 135.756 339.204 137.977 341.611 140.571L316.794 165.388C314.942 163.721 313.091 162.055 311.052 160.757H310.868C310.496 160.388 309.942 160.017 309.386 159.646L308.275 159.091L306.794 158.165C305.682 157.609 304.756 157.239 303.646 156.868L302.163 156.313C301.792 156.128 301.423 155.943 301.051 155.943C300.682 155.757 300.496 155.757 300.312 155.572C299.94 155.572 299.384 155.387 299.015 155.201C295.867 154.461 292.534 154.091 289.199 154.091C285.866 154.091 282.532 154.461 279.568 155.201C279.014 155.387 278.643 155.572 278.087 155.572L277.532 155.943C277.162 155.943 276.606 156.128 276.235 156.313L274.754 156.868C273.643 157.239 272.716 157.609 271.79 158.165L270.495 158.721L269.939 159.276L268.828 159.832C268.456 160.017 267.902 160.388 267.531 160.757L265.864 161.869C265.864 161.869 265.679 161.869 265.679 162.054H265.494V162.24C264.754 162.611 264.198 163.165 263.642 163.536V163.721C255.494 170.758 250.307 181.314 250.307 192.982C250.307 204.65 255.494 215.021 263.642 222.245C264.198 222.615 264.754 223.171 265.494 223.725L265.864 224.096L267.531 225.208C268.828 226.133 270.31 226.875 271.79 227.615C272.716 228.171 273.643 228.727 274.754 229.097C276.235 229.652 277.902 230.208 279.568 230.579C282.532 231.32 285.866 231.874 289.199 231.874C292.534 231.874 295.867 231.32 299.015 230.579C300.496 230.208 302.163 229.652 303.646 229.097C304.756 228.727 305.682 228.171 306.794 227.615C308.275 226.875 309.571 226.133 310.868 225.208H311.052L314.016 222.985L316.794 220.392V193.168H339.019C346.242 193.168 351.983 198.909 351.983 205.946V220.023C351.983 229.468 348.463 238.543 341.796 245.209L341.611 245.395C339.204 247.803 336.426 250.209 333.648 252.432L329.203 255.395L326.98 256.692C325.498 257.617 323.831 258.544 322.164 259.284C321.424 259.84 320.498 260.211 319.758 260.581L316.794 261.692V261.877H316.424C315.314 262.433 314.202 262.804 312.904 263.173C305.496 265.767 297.534 267.062 289.199 267.062C280.866 267.062 272.902 265.767 265.494 263.173" fill="#549CDA"/>
<path d="M375.129 118.903H397.538C404.761 118.903 410.501 124.644 410.501 131.867V175.389H467.914V118.903H490.324C497.361 118.903 503.288 124.644 503.288 131.867V267.062H467.914V210.577H410.501V267.062H375.129V118.903" fill="#549CDA"/>
<path d="M637.925 154.091H591.254V118.903H706.82C714.042 118.903 719.782 124.829 719.782 131.867V154.091H673.112V267.062H637.925V154.091" fill="#549CDA"/>
<path d="M742.932 118.903H818.308C825.345 118.903 831.272 124.644 831.272 131.867V154.091H778.118V175.389H831.272V210.577H778.118V231.874H831.272V267.062H742.932V118.903Z" fill="#549CDA"/>
<path d="M854.421 196.131C854.421 153.72 886.645 118.903 929.056 118.903C949.798 118.903 967.764 126.681 980.728 140.756L963.874 157.609C959.985 161.499 953.688 162.795 948.502 158.905C942.021 156.313 935.538 153.72 927.761 153.72C907.204 153.72 890.534 170.388 890.534 191.131C890.534 212.429 905.906 232.431 929.056 232.431C935.538 232.431 943.317 229.652 948.502 227.06C953.688 223.171 959.985 224.467 963.874 228.356L980.728 245.209C967.764 259.471 948.502 267.062 926.649 267.062C887.757 267.062 854.421 234.837 854.421 196.131" fill="#549CDA"/>
<path d="M1003.88 118.903H1026.28C1033.51 118.903 1039.25 124.644 1039.25 131.867V175.389H1096.66V118.903H1119.07C1126.11 118.903 1132.04 124.644 1132.04 131.867V267.062H1096.66V210.577H1039.25V267.062H1003.88V118.903" fill="#549CDA"/>
<path d="M9.80119 322.121C14.0905 329.752 17.2332 334.673 17.2332 334.673C17.2332 334.673 33.5092 330.202 51.5652 332.962C60.8092 334.442 71.1999 337.367 79.7625 341.889C88.2585 346.479 95.7399 352.264 100.047 359.612C101.875 358.565 104.336 357.136 106.763 355.739C104.169 357.236 101.625 358.715 100.047 359.612C102.124 363.869 113.08 383.222 94.6265 401.826C84.6999 411.818 70.6025 411.551 58.6319 408.226C46.5452 405.051 37.4999 398.616 37.4999 398.616C37.4999 398.616 40.8919 403.455 46.4772 410.337C52.2132 417.137 59.3625 426.464 67.3105 435.144C75.2399 443.821 82.9052 452.583 89.2719 458.635C95.4572 464.804 99.5799 468.927 99.5799 468.927C99.5799 468.927 103.188 466.766 109.073 464.42C114.925 462.094 123.205 459.416 132.383 458.303C141.925 457.156 152.351 457.621 161.777 459.783C171.453 461.761 180.083 465.518 185.968 471.687C189.476 474.83 204.489 491.339 191.72 513.749C184.82 525.836 170.755 529.611 158.585 529.228C146.349 529.012 135.625 525.471 135.625 525.471C135.625 525.471 140.347 529.012 147.445 534.348C154.412 539.786 164.155 546.452 173.913 552.969C183.473 559.719 193.781 565.423 201.164 570.06C204.871 572.355 207.996 574.2 210.275 575.38C212.519 576.595 213.799 577.292 213.799 577.292C213.799 577.292 225.687 565.29 242.744 558.622C251.523 555.247 261.831 552.836 271.607 552.354C281.332 551.988 290.56 553.484 298.041 557.591C300.087 558.739 305.756 562.445 310.145 568.829C314.617 575.032 317.792 584.176 314.384 596.861C310.776 610.46 298.391 617.294 286.337 620.419C280.301 622.066 274.583 622.515 270.309 622.647C266.037 622.78 263.244 622.582 263.244 622.582C263.244 622.582 268.697 624.875 276.844 628.333C285.207 631.376 296.163 635.665 307.285 639.439C318.54 642.897 329.547 646.722 338.059 648.85C346.521 651.06 352.159 652.54 352.159 652.54C352.159 652.54 354.22 648.866 358.16 643.879C362.116 638.808 367.819 632.723 375.251 627.054C382.948 621.268 392.243 616.347 401.487 613.536C410.764 610.676 420.207 609.28 428.387 611.691C432.843 613.237 454.323 618.989 454.373 645.424C454.423 659.507 444.264 669.283 433.475 675.268C428.12 678.277 422.667 680.389 418.544 681.735C414.404 683.131 411.695 683.531 411.695 683.531C411.695 683.531 413.157 683.747 415.717 684.129C418.295 684.412 421.969 684.828 426.392 685.31C435.203 686.274 446.891 687.687 458.645 688.136C464.497 688.468 470.349 688.802 475.82 689.118C481.307 689.167 486.427 689.2 490.816 689.233C499.528 689.283 505.347 689.316 505.347 689.316C505.347 689.316 509.62 673.023 521.041 658.492C526.96 650.895 534.641 644.044 542.855 638.742C551.101 633.304 559.863 629.864 568.391 630.096C573.097 629.864 595.375 630.76 602.208 655.799C605.865 669.299 598.584 681.752 589.705 690.115C580.893 698.627 570.819 703.715 570.819 703.715C570.819 703.715 576.671 702.867 585.449 701.603C589.805 700.955 594.909 700.206 600.363 699.408C605.765 698.344 611.535 697.197 617.321 696.067C628.843 694.005 640.197 691.045 648.66 688.901C657.156 686.807 662.743 685.211 662.743 685.211C662.743 685.211 662.659 668.286 669.991 651.41C677.772 634.086 692.036 615.964 708.396 611.691C712.935 610.428 734.632 605.507 747.699 627.819C754.732 639.888 750.908 653.755 744.557 664.361C738.223 674.769 729.76 682.201 729.76 682.201C729.76 682.201 751.807 673.455 772.804 662.915C783.361 657.795 793.536 651.908 801.251 647.852C808.865 643.563 813.787 640.42 813.787 640.42C813.787 640.42 809.331 624.144 812.075 606.088C813.571 596.844 816.48 586.453 821.019 577.892C825.607 569.396 831.376 561.913 838.741 557.591L836.747 554.15L838.741 557.591C842.997 555.529 862.333 544.573 880.937 563.028C890.947 572.953 890.664 587.052 887.339 599.023C884.18 611.11 877.729 620.154 877.729 620.154C877.729 620.154 882.584 616.763 889.467 611.175C896.249 605.44 905.593 598.291 914.256 590.344C922.935 582.414 931.696 574.75 937.764 568.382C943.932 562.198 948.039 558.073 948.039 558.073C948.039 558.073 945.895 554.466 943.533 548.58C941.223 542.728 938.545 534.448 937.432 525.271C936.268 515.728 936.733 505.303 938.895 495.876C940.873 486.2 944.631 477.572 950.816 471.687C953.941 468.179 970.451 453.166 992.861 465.934C1004.97 472.834 1008.74 486.899 1008.36 499.068C1008.14 511.305 1004.58 522.028 1004.58 522.028C1004.58 522.028 1008.14 517.307 1013.46 510.208C1018.91 503.241 1025.58 493.499 1032.08 483.74C1038.85 474.18 1044.55 463.872 1049.19 456.491C1051.47 452.783 1053.33 449.657 1054.49 447.38C1055.72 445.135 1056.42 443.855 1056.42 443.855C1056.42 443.855 1044.42 431.967 1037.73 414.909C1034.38 406.131 1031.95 395.823 1031.47 386.047C1031.12 376.321 1032.61 367.093 1036.72 359.612C1037.85 357.567 1041.57 351.899 1047.94 347.509C1054.14 343.037 1063.3 339.862 1075.97 343.27C1089.57 346.878 1096.41 359.264 1099.53 371.316C1101.19 377.352 1101.63 383.072 1101.76 387.344C1101.91 391.617 1101.69 394.411 1101.69 394.411C1101.69 394.411 1104 388.957 1107.46 380.811C1110.51 372.448 1114.79 361.491 1118.55 350.368C1122.01 339.113 1125.85 328.107 1127.98 319.595C1129.69 312.978 1130.97 308.123 1131.44 306.311H1.25586C4.38253 312.129 7.42386 317.583 9.80119 322.121" fill="#181D26"/>
<path d="M196.654 39.1179C189.042 36.9312 183.5 34.2419 180.035 31.0512C176.567 27.8619 174.832 23.9246 174.832 19.2406C174.832 13.9406 176.952 9.55524 181.19 6.08724C185.427 2.62057 190.936 0.887236 197.716 0.887236C202.339 0.887236 206.462 1.78188 210.083 3.56855C213.704 5.35655 216.508 7.82188 218.496 10.9659C220.484 14.1085 221.479 17.5459 221.479 21.2739H212.555C212.555 17.1912 211.262 13.9832 208.672 11.6472C206.084 9.31253 202.432 8.14453 197.716 8.14453C193.34 8.14453 189.927 9.11122 187.478 11.0406C185.027 12.9712 183.802 15.6485 183.802 19.0752C183.802 21.8232 184.964 24.1472 187.292 26.0459C189.619 27.9446 193.579 29.6805 199.172 31.2552C204.767 32.8299 209.143 34.5645 212.302 36.4605C215.46 38.3565 217.803 40.5672 219.328 43.0939C220.854 45.6219 221.616 48.5952 221.616 52.0165C221.616 57.4712 219.491 61.8392 215.238 65.1219C210.984 68.4045 205.298 70.0459 198.179 70.0459C193.555 70.0459 189.24 69.1592 185.235 67.3872C181.228 65.6152 178.139 63.1886 175.966 60.1072C173.794 57.0246 172.707 53.5272 172.707 49.6126H181.63C181.63 53.6806 183.131 56.8939 186.136 59.2512C189.142 61.6086 193.156 62.7872 198.179 62.7872C202.863 62.7872 206.454 61.8325 208.95 59.9219C211.446 58.0112 212.695 55.4072 212.695 52.1085C212.695 48.8112 211.539 46.2605 209.227 44.4579C206.916 42.6552 202.724 40.8752 196.654 39.1179" fill="#181D26"/>
<path d="M288.077 38.0081H258.906V61.8628H292.792V69.1201H250.03V1.81075H292.329V9.06947H258.906V30.7508H288.077V38.0081" fill="#181D26"/>
<path d="M329.759 34.6335H343.395C347.803 34.6335 351.308 33.4921 353.913 31.2068C356.516 28.9228 357.82 25.8655 357.82 22.0361C357.82 17.8681 356.579 14.6735 354.099 12.4508C351.616 10.2268 348.033 9.10014 343.349 9.06947H329.759V34.6335ZM345.568 41.8921H329.759V69.1201H320.836V1.81075H343.117C350.7 1.81075 356.532 3.53746 360.616 6.98946C364.7 10.4415 366.741 15.4655 366.741 22.0588C366.741 26.2508 365.608 29.9027 363.343 33.0161C361.079 36.1294 357.927 38.4561 353.889 39.9961L369.7 68.5654V69.1201H360.176L345.568 41.8921" fill="#181D26"/>
<path d="M405.096 34.6335H418.732C423.14 34.6335 426.645 33.4921 429.25 31.2068C431.853 28.9228 433.157 25.8655 433.157 22.0361C433.157 17.8681 431.916 14.6735 429.436 12.4508C426.953 10.2268 423.37 9.10014 418.686 9.06947H405.096V34.6335ZM420.905 41.8921H405.096V69.1201H396.173V1.81075H418.454C426.037 1.81075 431.869 3.53746 435.953 6.98946C440.037 10.4415 442.078 15.4655 442.078 22.0588C442.078 26.2508 440.945 29.9027 438.68 33.0161C436.416 36.1294 433.264 38.4561 429.226 39.9961L445.037 68.5654V69.1201H435.513L420.905 41.8921" fill="#181D26"/>
<path d="M483.205 44.2494H506.088L494.622 12.7681L483.205 44.2494ZM508.722 51.5068H480.524L474.19 69.1201H465.037L490.74 1.81075H498.506L524.256 69.1201H515.149L508.722 51.5068" fill="#181D26"/>
<path d="M559.28 61.8628H591.178V69.1201H550.358V1.81075H559.28V61.8628" fill="#181D26"/>
<path d="M670.074 69.1201H661.153V38.0081H627.22V69.1201H618.344V1.81075H627.22V30.7508H661.153V1.81075H670.074V69.1201Z" fill="#181D26"/>
<path d="M740.928 38.0081H711.757V61.8628H745.642V69.1201H702.881V1.81075H745.18V9.06947H711.757V30.7508H740.928V38.0081Z" fill="#181D26"/>
<path d="M782.608 34.6335H796.245C800.653 34.6335 804.159 33.4921 806.764 31.2068C809.367 28.9228 810.669 25.8655 810.669 22.0361C810.669 17.8681 809.429 14.6735 806.948 12.4508C804.467 10.2268 800.883 9.10014 796.2 9.06947H782.608V34.6335ZM798.419 41.8921H782.608V69.1201H773.687V1.81075H795.968C803.549 1.81075 809.383 3.53746 813.467 6.98946C817.549 10.4415 819.592 15.4655 819.592 22.0588C819.592 26.2508 818.459 29.9027 816.193 33.0161C813.929 36.1294 810.776 38.4561 806.74 39.9961L822.549 68.5654V69.1201H813.027L798.419 41.8921" fill="#181D26"/>
<path d="M858.592 69.1201H849.716V1.81075H858.592V69.1201Z" fill="#181D26"/>
<path d="M904.341 44.2494H927.224L915.76 12.7681L904.341 44.2494ZM929.86 51.5068H901.661L895.328 69.1201H886.173L911.877 1.81075H919.644L945.392 69.1201H936.285L929.86 51.5068Z" fill="#181D26"/>
<path d="M961.032 304.717C898.467 461.451 745.136 572.492 566.347 572.492C387.356 572.492 233.902 461.195 171.475 304.181C167.606 305.463 163.344 305.683 159.404 304.644C222.54 467.84 381.136 583.887 566.347 583.887C751.528 583.887 910.102 467.872 973.264 304.717H961.032Z" fill="white"/>
<path d="M118.016 46.3738L136.669 46.3685L136.508 46.2059C142.393 46.2099 147.14 41.4632 146.973 35.7405C146.977 29.8472 142.398 25.2685 136.668 25.1059L136.505 24.9432L110.818 24.7792L90.533 25.1018L90.205 24.7738L49.2996 24.7792L28.685 4.16452L2.01963 19.7032L2.1863 24.1205L24.4303 24.1218L24.437 46.0418L2.01963 45.8792L2.01562 50.4672L28.849 65.8418L48.8116 45.8792L48.813 46.2059L100.51 46.2085L118.016 46.3738ZM136.836 30.8312C139.284 30.9952 141.41 33.1219 141.413 35.7365C141.578 38.1899 139.452 40.3165 136.83 40.3191C134.212 40.3205 132.085 38.1938 132.089 35.5778C132.089 32.9538 134.216 30.8272 136.836 30.8312" fill="#181D26"/>
<path d="M1004.5 24.428L985.841 24.4346L986.002 24.596C980.118 24.592 975.37 29.34 975.537 35.0626C975.533 40.956 980.112 45.5347 985.842 45.6973L986.005 45.8587L1011.69 46.0227L1031.98 45.7L1032.3 46.0293L1073.21 46.024L1093.82 66.6387L1120.49 51.0986L1120.32 46.6826L1098.08 46.6799L1098.07 24.7613L1120.49 24.9227L1120.49 20.336L1093.66 4.96133L1073.7 24.9227L1073.7 24.596L1022 24.5947L1004.5 24.428V24.428ZM985.674 39.972C983.226 39.808 981.1 37.68 981.097 35.0667C980.932 32.6133 983.058 30.4853 985.681 30.484C988.298 30.4813 990.425 32.6093 990.421 35.2253C990.421 37.8493 988.294 39.976 985.674 39.972" fill="#181D26"/>
</svg>
